<?xml version="1.0" encoding="UTF-8"?>
<!DOCTYPE svg PUBLIC "-//W3C//DTD SVG 1.1//EN" "http://www.w3.org/Graphics/SVG/1.1/DTD/svg11.dtd">
<svg xmlns="http://www.w3.org/2000/svg" version="1.1" width="655px" height="409px" style="shape-rendering:geometricPrecision; text-rendering:geometricPrecision; image-rendering:optimizeQuality; fill-rule:evenodd; clip-rule:evenodd" xmlns:xlink="http://www.w3.org/1999/xlink">
<g><path style="opacity:1" fill="#fefefe" d="M -0.5,-0.5 C 217.833,-0.5 436.167,-0.5 654.5,-0.5C 654.5,135.833 654.5,272.167 654.5,408.5C 436.167,408.5 217.833,408.5 -0.5,408.5C -0.5,272.167 -0.5,135.833 -0.5,-0.5 Z"/></g>
<g><path style="opacity:1" fill="#010101" d="M 171.5,188.5 C 180.5,188.5 189.5,188.5 198.5,188.5C 198.5,190.833 198.5,193.167 198.5,195.5C 192.167,195.5 185.833,195.5 179.5,195.5C 179.5,206.167 179.5,216.833 179.5,227.5C 176.833,227.5 174.167,227.5 171.5,227.5C 171.5,214.5 171.5,201.5 171.5,188.5 Z"/></g>
<g><path style="opacity:1" fill="#030303" d="M 220.5,188.5 C 223.448,188.223 226.281,188.556 229,189.5C 237.167,201.833 245.333,214.167 253.5,226.5C 250.894,227.652 248.227,227.818 245.5,227C 239.876,218.92 234.376,210.753 229,202.5C 228.5,210.827 228.334,219.16 228.5,227.5C 225.833,227.5 223.167,227.5 220.5,227.5C 220.5,214.5 220.5,201.5 220.5,188.5 Z"/></g>
<g><path style="opacity:1" fill="#020202" d="M 246.5,188.5 C 249.167,188.5 251.833,188.5 254.5,188.5C 254.666,198.506 254.5,208.506 254,218.5C 250.902,216.072 248.569,213.072 247,209.5C 246.5,202.508 246.334,195.508 246.5,188.5 Z"/></g>
<g><path style="opacity:1" fill="#070707" d="M 274.5,188.5 C 277.898,188.18 281.232,188.513 284.5,189.5C 289.696,201.753 294.696,214.087 299.5,226.5C 296.291,227.787 293.125,227.787 290,226.5C 286.912,216.896 283.245,207.562 279,198.5C 274.8,207.935 271.3,217.601 268.5,227.5C 265.5,227.5 262.5,227.5 259.5,227.5C 264.3,214.434 269.3,201.434 274.5,188.5 Z"/></g>
<g><path style="opacity:1" fill="#040404" d="M 304.5,188.5 C 307.448,188.223 310.281,188.556 313,189.5C 321.167,201.833 329.333,214.167 337.5,226.5C 334.5,227.833 331.5,227.833 328.5,226.5C 323.53,218.365 318.364,210.365 313,202.5C 312.5,210.827 312.334,219.16 312.5,227.5C 309.833,227.5 307.167,227.5 304.5,227.5C 304.5,214.5 304.5,201.5 304.5,188.5 Z"/></g>
<g><path style="opacity:1" fill="#010101" d="M 330.5,188.5 C 333.167,188.5 335.833,188.5 338.5,188.5C 338.666,198.506 338.5,208.506 338,218.5C 334.469,215.975 332.135,212.641 331,208.5C 330.5,201.842 330.334,195.175 330.5,188.5 Z"/></g>
<g><path style="opacity:1" fill="#070707" d="M 358.5,188.5 C 368.501,186.446 376.834,189.112 383.5,196.5C 381.207,198.23 378.707,199.563 376,200.5C 367.569,193.18 360.236,194.18 354,203.5C 352.645,215.145 357.812,220.645 369.5,220C 372.102,219.117 374.269,217.617 376,215.5C 378.707,216.437 381.207,217.77 383.5,219.5C 376.83,227.051 368.497,229.551 358.5,227C 344.833,220.332 341.333,210.165 348,196.5C 350.94,192.963 354.44,190.297 358.5,188.5 Z"/></g>
<g><path style="opacity:1" fill="#b44949" d="M 388.5,188.5 C 391.5,188.5 394.5,188.5 397.5,188.5C 397.5,190.5 397.5,192.5 397.5,194.5C 394.5,194.5 391.5,194.5 388.5,194.5C 388.5,192.5 388.5,190.5 388.5,188.5 Z"/></g>
<g><path style="opacity:1" fill="#060606" d="M 421.5,188.5 C 430.5,188.5 439.5,188.5 448.5,188.5C 448.5,190.833 448.5,193.167 448.5,195.5C 442.5,195.5 436.5,195.5 430.5,195.5C 430.5,206.167 430.5,216.833 430.5,227.5C 427.5,227.5 424.5,227.5 421.5,227.5C 421.5,214.5 421.5,201.5 421.5,188.5 Z"/></g>
<g><path style="opacity:1" fill="#0a0a0a" d="M 451.5,188.5 C 454.187,188.336 456.854,188.503 459.5,189C 464.382,197.263 468.882,205.763 473,214.5C 473.499,218.821 473.666,223.154 473.5,227.5C 470.5,227.5 467.5,227.5 464.5,227.5C 464.666,222.821 464.499,218.155 464,213.5C 459.295,205.423 455.128,197.09 451.5,188.5 Z"/></g>
<g><path style="opacity:1" fill="#0d0d0d" d="M 477.5,188.5 C 480.572,188.183 483.572,188.516 486.5,189.5C 483,195.833 479.5,202.167 476,208.5C 473.769,207.034 472.269,205.034 471.5,202.5C 473.509,197.817 475.509,193.15 477.5,188.5 Z"/></g>
<g><path style="opacity:1" fill="#eacdcc" d="M 203.5,187.5 C 206.833,187.5 210.167,187.5 213.5,187.5C 213.5,190.167 213.5,192.833 213.5,195.5C 210.167,195.5 206.833,195.5 203.5,195.5C 203.5,192.833 203.5,190.167 203.5,187.5 Z"/></g>
<g><path style="opacity:1" fill="#b04342" d="M 204.5,188.5 C 207.167,188.5 209.833,188.5 212.5,188.5C 212.5,190.5 212.5,192.5 212.5,194.5C 209.833,194.5 207.167,194.5 204.5,194.5C 204.5,192.5 204.5,190.5 204.5,188.5 Z"/></g>
<g><path style="opacity:1" fill="#eacdcd" d="M 404.5,187.5 C 407.833,187.5 411.167,187.5 414.5,187.5C 414.5,190.167 414.5,192.833 414.5,195.5C 411.167,195.5 407.833,195.5 404.5,195.5C 404.5,192.833 404.5,190.167 404.5,187.5 Z"/></g>
<g><path style="opacity:1" fill="#b04342" d="M 405.5,188.5 C 408.167,188.5 410.833,188.5 413.5,188.5C 413.5,190.5 413.5,192.5 413.5,194.5C 410.833,194.5 408.167,194.5 405.5,194.5C 405.5,192.5 405.5,190.5 405.5,188.5 Z"/></g>
<g><path style="opacity:1" fill="#000000" d="M 211.5,200.5 C 212.493,209.318 212.827,218.318 212.5,227.5C 209.833,227.5 207.167,227.5 204.5,227.5C 204.197,218.749 204.53,210.082 205.5,201.5C 207.565,201.483 209.565,201.15 211.5,200.5 Z"/></g>
<g><path style="opacity:1" fill="#bcbcbc" d="M 211.5,200.5 C 211.56,199.957 211.893,199.624 212.5,199.5C 213.498,209.144 213.832,218.81 213.5,228.5C 209.958,228.813 206.625,228.479 203.5,227.5C 203.833,227.5 204.167,227.5 204.5,227.5C 207.167,227.5 209.833,227.5 212.5,227.5C 212.827,218.318 212.493,209.318 211.5,200.5 Z"/></g>
<g><path style="opacity:1" fill="#000000" d="M 396.5,200.5 C 397.493,209.318 397.827,218.318 397.5,227.5C 394.833,227.5 392.167,227.5 389.5,227.5C 389.197,218.749 389.53,210.082 390.5,201.5C 392.565,201.483 394.565,201.15 396.5,200.5 Z"/></g>
<g><path style="opacity:1" fill="#cecece" d="M 396.5,200.5 C 396.56,199.957 396.893,199.624 397.5,199.5C 398.498,209.144 398.832,218.81 398.5,228.5C 394.958,228.813 391.625,228.479 388.5,227.5C 388.833,227.5 389.167,227.5 389.5,227.5C 392.167,227.5 394.833,227.5 397.5,227.5C 397.827,218.318 397.493,209.318 396.5,200.5 Z"/></g>
<g><path style="opacity:1" fill="#000000" d="M 412.5,200.5 C 413.493,209.318 413.827,218.318 413.5,227.5C 410.833,227.5 408.167,227.5 405.5,227.5C 405.197,218.749 405.53,210.082 406.5,201.5C 408.565,201.483 410.565,201.15 412.5,200.5 Z"/></g>
<g><path style="opacity:1" fill="#9f9f9f" d="M 412.5,200.5 C 412.56,199.957 412.893,199.624 413.5,199.5C 414.498,209.144 414.832,218.81 414.5,228.5C 411.167,228.5 407.833,228.5 404.5,228.5C 403.862,219.105 404.529,210.105 406.5,201.5C 405.53,210.082 405.197,218.749 405.5,227.5C 408.167,227.5 410.833,227.5 413.5,227.5C 413.827,218.318 413.493,209.318 412.5,200.5 Z"/></g>
<g><path style="opacity:1" fill="#6d6d6d" d="M 205.5,201.5 C 204.53,210.082 204.197,218.749 204.5,227.5C 204.167,227.5 203.833,227.5 203.5,227.5C 202.864,218.435 203.53,209.769 205.5,201.5 Z"/></g>
<g><path style="opacity:1" fill="#575757" d="M 390.5,201.5 C 389.53,210.082 389.197,218.749 389.5,227.5C 389.167,227.5 388.833,227.5 388.5,227.5C 387.864,218.435 388.53,209.769 390.5,201.5 Z"/></g>
<g><path style="opacity:1" fill="#525252" d="M 186.5,206.5 C 189.962,205.518 193.629,205.185 197.5,205.5C 197.802,208.059 197.468,210.393 196.5,212.5C 196.5,210.5 196.5,208.5 196.5,206.5C 193.167,206.5 189.833,206.5 186.5,206.5 Z"/></g>
<g><path style="opacity:1" fill="#444444" d="M 436.5,206.5 C 439.962,205.518 443.629,205.185 447.5,205.5C 447.5,207.833 447.5,210.167 447.5,212.5C 447.167,212.5 446.833,212.5 446.5,212.5C 446.5,210.5 446.5,208.5 446.5,206.5C 443.167,206.5 439.833,206.5 436.5,206.5 Z"/></g>
<g><path style="opacity:1" fill="#060606" d="M 186.5,206.5 C 189.833,206.5 193.167,206.5 196.5,206.5C 196.5,208.5 196.5,210.5 196.5,212.5C 192.833,212.5 189.167,212.5 185.5,212.5C 185.325,210.379 185.659,208.379 186.5,206.5 Z"/></g>
<g><path style="opacity:1" fill="#000000" d="M 436.5,206.5 C 439.833,206.5 443.167,206.5 446.5,206.5C 446.5,208.5 446.5,210.5 446.5,212.5C 443.167,212.5 439.833,212.5 436.5,212.5C 436.5,211.167 436.5,209.833 436.5,208.5C 436.5,207.833 436.5,207.167 436.5,206.5 Z"/></g>
<g><path style="opacity:1" fill="#b6b6b6" d="M 436.5,208.5 C 436.5,209.833 436.5,211.167 436.5,212.5C 439.833,212.5 443.167,212.5 446.5,212.5C 446.833,212.5 447.167,212.5 447.5,212.5C 443.702,213.483 439.702,213.817 435.5,213.5C 435.216,211.585 435.549,209.919 436.5,208.5 Z"/></g>
</svg>
